<svg xmlns="http://www.w3.org/2000/svg" xmlns:xlink="http://www.w3.org/1999/xlink" width="20" height="19.82" viewBox="0 0 20 19.82"><defs><style>.a,.c,.e{fill:none;}.b{clip-path:url(#a);}.c,.e{stroke:#fff;}.c{stroke-linecap:round;stroke-linejoin:round;stroke-width:1.39px;}.d{fill:#fff;}.e{stroke-miterlimit:10;stroke-width:1.16px;}</style><clipPath id="a" transform="translate(0.05 -0.17)"><rect class="a" width="20" height="20"/></clipPath></defs><g class="b"><path class="c" d="M10,.87h4.56a6.51,6.51,0,0,1,2.14.37,3.65,3.65,0,0,1,2.14,2.14,6.26,6.26,0,0,1,.37,2.14c.1,1.21.1,1.59.1,4.56s0,3.35-.1,4.56a6.26,6.26,0,0,1-.37,2.14,3.73,3.73,0,0,1-2.14,2.14,6.26,6.26,0,0,1-2.14.37H5.39a6.3,6.3,0,0,1-2.14-.37,3.67,3.67,0,0,1-2.14-2.14,6.51,6.51,0,0,1-.37-2.14c0-1-.09-1.4-.09-4.47s0-3.35.09-4.56a6.27,6.27,0,0,1,.38-2.14A3.64,3.64,0,0,1,3.25,1.34,6.27,6.27,0,0,1,5.39,1H10" transform="translate(0.05 -0.17)"/><path class="c" d="M10,5.52a4.65,4.65,0,1,0,4.65,4.66h0A4.65,4.65,0,0,0,10,5.52" transform="translate(0.05 -0.17)"/><path class="d" d="M16.28,4.41a.75.75,0,0,1-1.49,0,.75.75,0,0,1,.75-.75h0a.75.75,0,0,1,.74.75" transform="translate(0.05 -0.17)"/><path class="e" d="M16.28,4.41a.75.75,0,0,1-1.49,0,.75.75,0,0,1,.75-.75h0a.75.75,0,0,1,.74.75" transform="translate(0.05 -0.17)"/></g></svg>