<svg xmlns="http://www.w3.org/2000/svg" xmlns:xlink="http://www.w3.org/1999/xlink" width="20" height="20" viewBox="0 0 20 20"><defs><style>.a{fill:none;}.b{clip-path:url(#a);}.c{fill:#fff;}</style><clipPath id="a" transform="translate(0 -0.34)"><rect class="a" width="20" height="20"/></clipPath></defs><g class="b"><path class="c" d="M17.62.34H2.38A2.38,2.38,0,0,0,0,2.72V18a2.39,2.39,0,0,0,2.38,2.38h8.29V12.63H8.1V9.56h2.57V7.17a4.06,4.06,0,0,1,4.06-4.06h2.19v3.2H14.73a.86.86,0,0,0-.86.86h0V9.56h3.05l-.48,3.07H13.87v7.71h3.75A2.39,2.39,0,0,0,20,18V2.72A2.38,2.38,0,0,0,17.62.34" transform="translate(0 -0.34)"/></g></svg>